<svg width="1108" height="1108" viewBox="0 0 1108 1108" fill="none" xmlns="http://www.w3.org/2000/svg">
<g clip-path="url(#clip0)">
<path d="M874.86 682.567C853.115 637.232 775.324 574.305 700.166 513.504C658.246 479.617 618.635 447.578 593.382 422.325C587.057 415.954 577.593 413.922 569.238 416.924C553.68 422.557 544.076 426.896 536.506 430.265C524.965 435.435 521.087 437.19 505.528 438.759C498.648 439.452 492.463 443.146 488.631 448.87C455.99 497.667 422.196 493.512 399.621 485.942C392.419 483.542 391.127 480.448 390.434 477.494C385.587 457.227 409.917 410.044 441.448 378.512C516.469 303.445 555.156 284.654 636.871 321.173C729.573 362.63 822.461 395.086 823.385 395.409C835.528 399.609 848.592 393.238 852.793 381.189C856.948 369.139 850.622 355.982 838.573 351.781C837.649 351.459 746.609 319.649 655.753 278.976C549.893 231.654 491.814 262.817 408.853 345.826C377.275 377.404 334.385 441.298 345.465 488.158C350.22 508.102 364.256 522.876 385.122 529.754C437.429 547.021 485.164 530.492 520.713 483.311C535.394 481.049 543.382 477.725 555.384 472.324C559.722 470.385 564.801 468.124 571.543 465.399C597.951 490.19 633.591 519.044 671.124 549.375C738.989 604.267 815.95 666.501 833.262 702.511C841.804 720.284 832.615 731.873 826.383 737.181C817.242 745.03 804.731 747.523 797.945 742.767C790.466 737.642 780.725 737.32 773.015 741.936C765.259 746.552 760.92 755.277 761.889 764.234C763.458 778.915 750.024 787.318 744.207 790.227C729.433 797.706 714.014 796.414 708.242 791.058C701.778 785.057 692.499 783.302 684.282 786.349C676.065 789.441 670.339 797.013 669.508 805.784C668.123 820.926 656.904 835.469 642.268 841.147C635.205 843.824 624.956 845.441 615.77 837.038C610.046 831.868 602.103 829.881 594.672 831.682C587.148 833.528 581.099 838.977 578.468 846.224C577.591 848.533 575.604 854.073 553.999 854.073C538.625 854.073 510.97 843.686 497.445 834.729C481.241 824.064 379.627 748.259 291.866 674.761C279.539 664.374 258.21 642.121 239.374 622.454C222.661 605.003 207.381 589.168 199.532 582.52C189.698 574.21 175.156 575.457 166.984 585.245C158.767 594.985 159.966 609.575 169.709 617.792C176.865 623.841 190.715 638.474 205.996 654.402C226.587 675.915 247.868 698.168 262.181 710.172C348.144 782.146 451.465 859.845 472.054 873.37C489.044 884.543 525.654 900.239 554.001 900.239C576.76 900.239 594.259 895.022 606.399 884.82C622.649 891.146 641.117 891.191 658.891 884.266C679.897 876.14 697.162 859.752 706.95 839.901C725.139 843.779 745.962 841.054 764.889 831.545C783.402 822.22 796.789 807.955 803.437 791.287C821.812 792.257 840.739 785.747 856.389 772.313C882.893 749.646 890.186 714.376 874.86 682.567Z" fill="black"/>
<path d="M461.666 300.076H253.916C241.174 300.076 230.832 310.418 230.832 323.16C230.832 335.902 241.174 346.244 253.916 346.244H461.666C474.408 346.244 484.75 335.902 484.75 323.16C484.75 310.418 474.408 300.076 461.666 300.076Z" fill="black"/>
<path d="M942.492 633.445C935.335 622.874 921.024 619.965 910.453 627.167L842.958 672.502C832.386 679.611 829.569 693.97 836.68 704.541C841.157 711.144 848.452 714.745 855.886 714.745C860.273 714.745 864.75 713.498 868.721 710.821L936.216 665.486C946.785 658.375 949.601 644.019 942.492 633.445Z" fill="black"/>
<path d="M799.19 743.6C782.663 730.581 708.75 654.915 663.045 607.271C654.226 598.037 639.593 597.714 630.404 606.578C621.17 615.397 620.893 630.03 629.712 639.219C641.577 651.591 746.236 760.683 770.566 779.889C774.767 783.213 779.846 784.83 784.832 784.83C791.618 784.83 798.405 781.783 803.021 776.011C810.917 766.037 809.21 751.495 799.19 743.6Z" fill="black"/>
<path d="M706.95 789.904C679.296 767.79 609.816 693.969 594.118 676.888C585.438 667.47 570.896 666.916 561.478 675.503C552.105 684.136 551.46 698.771 560.093 708.144C560.924 709.02 643.84 798.539 678.095 825.962C682.343 829.331 687.467 830.993 692.499 830.993C699.24 830.993 705.978 827.992 710.549 822.361C718.493 812.387 716.877 797.844 706.95 789.904Z" fill="black"/>
<path d="M615.08 836.395C582.163 808.65 514.806 736.952 501.649 722.871C492.923 713.546 478.288 713.037 469.008 721.763C459.683 730.488 459.22 745.076 467.9 754.403C486.829 774.67 551.277 842.998 585.303 871.713C589.642 875.359 594.905 877.16 600.168 877.16C606.723 877.16 613.28 874.344 617.85 868.943C626.067 859.155 624.821 844.612 615.08 836.395Z" fill="black"/>
<path d="M269.798 260.235C230.232 222.747 72.02 210.604 24.4691 207.789C17.9141 207.466 11.8656 209.635 7.24961 214.021C2.6315 218.36 0 224.454 0 230.825V646.325C0 659.067 10.3421 669.409 23.0841 669.409H161.584C171.556 669.409 180.42 662.993 183.513 653.482C186.882 643.14 266.429 399.012 276.907 278.978C277.509 271.96 274.922 265.035 269.798 260.235ZM144.732 623.243H46.1659V255.571C120.356 261.434 200.41 274.176 229.494 288.303C217.261 389.408 161.906 569.042 144.732 623.243Z" fill="black"/>
<path d="M1084.92 253.91C903.666 253.91 803.115 300.307 798.915 302.246C792.914 305.062 788.434 310.279 786.588 316.605C784.742 322.93 785.664 329.717 789.127 335.348C817.658 381.284 906.99 636.401 924.164 698.633C926.934 708.651 936.03 715.576 946.417 715.576H1084.92C1097.66 715.576 1108 705.234 1108 692.492V276.992C1108 264.204 1097.66 253.91 1084.92 253.91ZM1061.84 669.41H963.684C941.801 598.128 877.167 412.261 841.112 335.441C876.336 323.484 952.005 302.939 1061.84 300.355V669.41Z" fill="black"/>
</g>
<defs>
<clipPath id="clip0">
<rect width="1108" height="1108" fill="white"/>
</clipPath>
</defs>
</svg>
