<svg width="1029" height="1029" viewBox="0 0 1029 1029" fill="none" xmlns="http://www.w3.org/2000/svg">
<g clip-path="url(#clip0)">
<path d="M621.269 319.008C612.215 312.587 599.671 314.714 593.247 323.768L592.857 324.316C586.434 333.368 588.565 345.913 597.616 352.336C601.148 354.841 605.207 356.046 609.231 356.046C615.523 356.046 621.72 353.1 625.639 347.577L626.029 347.029C632.452 337.977 630.321 325.432 621.269 319.008Z" fill="black"/>
<path d="M575.485 375.965C568.446 367.381 555.783 366.133 547.201 373.173C519.28 396.076 487.551 412.38 452.897 421.633C442.173 424.497 435.8 435.51 438.664 446.234C441.064 455.222 449.187 461.153 458.068 461.153C459.785 461.153 461.529 460.932 463.265 460.465C503.495 449.723 540.31 430.809 572.691 404.248C581.275 397.21 582.525 384.544 575.485 375.965Z" fill="black"/>
<path d="M968.707 455.152C935.461 455.152 908.414 482.199 908.414 515.443V525.493C908.414 609.777 847.046 679.952 766.655 693.797C777.154 678.312 783.296 659.643 783.296 639.566V625.606C783.296 572.186 739.835 528.727 686.415 528.727C632.996 528.727 589.537 572.186 589.537 625.606V639.566C589.537 659.133 595.385 677.349 605.4 692.597C528.166 676.226 470.028 607.532 470.028 525.493V515.443C470.028 482.199 442.98 455.152 409.735 455.152C376.489 455.152 349.442 482.199 349.442 515.443V525.493C349.442 566.286 357.742 605.735 373.756 642.182H240.675H237.006V439.783C237.006 430.811 231.061 422.925 222.435 420.461C115.135 389.774 40.1953 290.429 40.1953 178.869V168.82C40.1953 157.738 49.2111 148.723 60.293 148.723C71.3748 148.723 80.3906 157.738 80.3906 168.82V178.869C80.3906 295.229 175.057 389.895 291.416 389.895H388.14C504.499 389.895 599.165 295.229 599.165 178.869V168.82C599.165 157.738 608.181 148.723 619.263 148.723C630.345 148.723 639.361 157.738 639.361 168.82V178.869C639.361 209.761 633.796 239.938 622.818 268.555C618.843 278.917 624.022 290.542 634.387 294.517C644.745 298.494 656.373 293.311 660.349 282.949C673.095 249.719 679.556 214.701 679.556 178.869V168.82C679.556 135.575 652.509 108.527 619.263 108.527C586.018 108.527 558.97 135.575 558.97 168.82V178.869C558.97 263.151 497.602 333.326 417.213 347.173C427.712 331.688 433.852 313.021 433.852 292.945V278.986C433.852 225.566 390.391 182.105 336.971 182.105C283.552 182.105 240.093 225.566 240.093 278.986V292.945C240.093 312.511 245.941 330.727 255.956 345.973C178.722 329.602 120.586 260.908 120.586 178.869V168.82C120.586 135.575 93.5385 108.527 60.293 108.527C27.0474 108.527 0 135.575 0 168.82V178.869C0 243.395 20.7448 304.576 59.9895 355.795C94.8469 401.286 143.011 435.934 196.812 454.51V662.278C196.812 673.376 205.81 682.376 216.91 682.376H220.58V1008.9C220.58 1020 229.578 1029 240.677 1029C251.777 1029 260.775 1020 260.775 1008.9V682.376H395.349C399.742 689.207 404.435 695.893 409.433 702.417C410.764 704.154 412.149 705.842 413.517 707.546V1008.9C413.517 1020 422.515 1029 433.615 1029C444.715 1029 453.713 1020 453.713 1008.9V748.618C481.096 771.567 512.571 789.5 546.256 801.133V1008.9C546.256 1020 555.254 1029 566.354 1029C577.454 1029 586.452 1020 586.452 1008.9V786.405C586.452 777.434 580.507 769.547 571.881 767.083C464.579 736.396 389.639 637.054 389.639 525.493V515.443C389.639 504.361 398.655 495.347 409.737 495.347C420.819 495.347 429.835 504.361 429.835 515.443V525.493C429.835 641.853 524.501 736.519 640.86 736.519H737.584C853.943 736.519 948.609 641.853 948.609 525.493V515.443C948.609 504.361 957.625 495.347 968.707 495.347C979.789 495.347 988.805 504.361 988.805 515.443V525.493C988.805 639.114 912.128 738.941 802.343 768.255C793.548 770.602 787.43 778.569 787.43 787.671V933.201C787.43 944.298 796.428 953.298 807.528 953.298C818.628 953.298 827.625 944.298 827.625 933.201V802.68C946.953 763.914 1029 652.087 1029 525.493V515.443C1029 482.199 1001.95 455.152 968.707 455.152ZM280.288 278.984C280.288 247.726 305.716 222.298 336.971 222.298C368.227 222.298 393.657 247.726 393.657 278.984V292.943C393.657 324.199 368.229 349.627 336.971 349.627C305.716 349.627 280.288 324.199 280.288 292.943V278.984ZM743.101 639.566C743.101 670.822 717.673 696.249 686.415 696.249C655.159 696.249 629.732 670.822 629.732 639.566V625.606C629.732 594.35 655.159 568.922 686.415 568.922C717.671 568.922 743.101 594.35 743.101 625.606V639.566Z" fill="black"/>
<path d="M821.734 994.693C817.996 990.953 812.811 988.805 807.525 988.805C802.24 988.805 797.055 990.953 793.316 994.693C789.578 998.431 787.428 1003.62 787.428 1008.9C787.428 1014.19 789.578 1019.37 793.316 1023.11C797.055 1026.85 802.24 1029 807.525 1029C812.811 1029 817.996 1026.85 821.734 1023.11C825.473 1019.37 827.623 1014.19 827.623 1008.9C827.623 1003.62 825.473 998.431 821.734 994.693Z" fill="black"/>
<path d="M336.973 751.652C325.873 751.652 316.875 760.652 316.875 771.75V1008.9C316.875 1020 325.873 1029 336.973 1029C348.073 1029 357.07 1020 357.07 1008.9V771.75C357.07 760.652 348.073 751.652 336.973 751.652Z" fill="black"/>
<path d="M936.551 164.801C925.451 164.801 916.453 173.801 916.453 184.898V209.88C916.453 220.978 925.451 229.977 936.551 229.977C947.651 229.977 956.648 220.978 956.648 209.88V184.898C956.648 173.801 947.651 164.801 936.551 164.801Z" fill="black"/>
<path d="M936.551 284.522C925.451 284.522 916.453 293.522 916.453 304.62V329.601C916.453 340.699 925.451 349.699 936.551 349.699C947.651 349.699 956.648 340.699 956.648 329.601V304.62C956.648 293.522 947.651 284.522 936.551 284.522Z" fill="black"/>
<path d="M1008.9 237.152H983.922C972.822 237.152 963.824 246.152 963.824 257.25C963.824 268.348 972.822 277.348 983.922 277.348H1008.9C1020 277.348 1029 268.348 1029 257.25C1029 246.152 1020 237.152 1008.9 237.152Z" fill="black"/>
<path d="M889.181 237.152H864.199C853.099 237.152 844.102 246.152 844.102 257.25C844.102 268.348 853.099 277.348 864.199 277.348H889.181C900.28 277.348 909.278 268.348 909.278 257.25C909.278 246.152 900.28 237.152 889.181 237.152Z" fill="black"/>
<path d="M441.893 0C430.793 0 421.795 8.99973 421.795 20.0977V45.079C421.795 56.177 430.793 65.1767 441.893 65.1767C452.993 65.1767 461.99 56.177 461.99 45.079V20.0977C461.99 8.99973 452.993 0 441.893 0Z" fill="black"/>
<path d="M441.893 119.722C430.793 119.722 421.795 128.721 421.795 139.819V164.801C421.795 175.899 430.793 184.898 441.893 184.898C452.993 184.898 461.99 175.899 461.99 164.801V139.819C461.99 128.721 452.993 119.722 441.893 119.722Z" fill="black"/>
<path d="M514.245 72.3516H489.264C478.164 72.3516 469.166 81.3513 469.166 92.4492C469.166 103.547 478.164 112.547 489.264 112.547H514.245C525.345 112.547 534.343 103.547 534.343 92.4492C534.343 81.3513 525.345 72.3516 514.245 72.3516Z" fill="black"/>
<path d="M394.522 72.3516H369.541C358.441 72.3516 349.443 81.3513 349.443 92.4492C349.443 103.547 358.441 112.547 369.541 112.547H394.522C405.622 112.547 414.62 103.547 414.62 92.4492C414.62 81.3513 405.622 72.3516 394.522 72.3516Z" fill="black"/>
</g>
<defs>
<clipPath id="clip0">
<rect width="1029" height="1029" fill="white"/>
</clipPath>
</defs>
</svg>
