<svg width="1033" height="1033" viewBox="0 0 1033 1033" fill="none" xmlns="http://www.w3.org/2000/svg">
<path d="M88.9147 814.96C85.162 811.208 79.9566 809.049 74.6504 809.049C69.3442 809.049 64.1388 811.206 60.3861 814.96C56.6334 818.713 54.4746 823.918 54.4746 829.225C54.4746 834.531 56.6334 839.736 60.3861 843.487C64.1388 847.242 69.3442 849.4 74.6504 849.4C79.9566 849.4 85.162 847.242 88.9147 843.487C92.6674 839.736 94.8262 834.531 94.8262 829.225C94.8262 823.918 92.6674 818.713 88.9147 814.96Z" fill="black"/>
<path d="M899.087 234.015C899.079 234.009 899.071 234.001 899.061 233.995L764.557 143.139C738.768 125.719 708.049 119.271 678.639 123.609C679.952 117.272 680.64 110.759 680.64 104.137C680.64 78.7582 670.756 54.8983 652.81 36.9499L643.688 27.8285C625.744 9.8821 601.882 0 576.503 0C551.124 0 527.262 9.8821 509.313 27.8305C491.367 45.7788 481.485 69.6387 481.485 95.0199C481.485 120.399 491.369 144.259 509.313 162.205L518.435 171.329C529.864 182.756 543.697 190.899 558.786 195.318L423.038 297.597C414.398 304.105 408.126 312.654 404.44 322.1C394.671 320.127 384.316 320.68 374.414 324.217L242.91 371.146C247.714 359.793 250.371 347.32 250.371 334.238V321.338C250.371 268.945 207.746 226.32 155.354 226.32C102.961 226.32 60.3357 268.945 60.3357 321.338V334.238C60.3357 370.694 80.9836 402.402 111.189 418.331C77.0614 432.752 54.4746 466.46 54.4746 503.834V744.486C54.4746 755.627 63.5073 764.662 74.6504 764.662C85.7935 764.662 94.8262 755.627 94.8262 744.486V707.565H174.406C178.606 707.565 182.506 706.277 185.736 704.08L276.969 642.151C285.937 636.064 296.406 632.848 307.243 632.848C336.964 632.848 361.144 657.026 361.144 686.747V811.785L304.652 834.392V733.39C304.652 726.124 300.746 719.422 294.429 715.839C288.112 712.258 280.355 712.346 274.12 716.075L171.898 777.228C159.203 784.822 151.318 798.729 151.318 813.522V992.648H94.8262V907.951C94.8262 896.809 85.7935 887.775 74.6504 887.775C63.5073 887.775 54.4746 896.809 54.4746 907.951V1012.82C54.4746 1023.97 63.5073 1033 74.6504 1033H171.494C182.637 1033 191.67 1023.97 191.67 1012.82V813.522C191.67 812.842 192.033 812.202 192.614 811.855L264.303 768.97V1012.82C264.303 1023.97 273.335 1033 284.479 1033H958.35C969.493 1033 978.525 1023.97 978.525 1012.82V380.761C978.525 321.326 948.835 266.5 899.087 234.015ZM546.969 142.798L537.848 133.673C527.522 123.349 521.836 109.621 521.836 95.0199C521.836 80.4166 527.522 66.689 537.848 56.3651C548.172 46.0371 561.9 40.3516 576.503 40.3516C591.106 40.3516 604.832 46.0371 615.158 56.3651L624.279 65.4865C645.593 86.7982 645.593 121.482 624.279 142.796C602.963 164.11 568.281 164.11 546.969 142.798ZM447.321 329.824L647.481 179.014C675.219 158.118 713.192 157.139 741.97 176.576L853.819 252.129L755.107 331.534L677.692 279.241C672.104 275.464 664.998 274.73 658.753 277.288L463.028 357.438C455.761 360.408 447.273 357.581 443.24 350.857C443.222 350.825 443.201 350.794 443.183 350.762C439.021 343.739 440.798 334.736 447.321 329.824ZM100.687 334.238V321.338C100.687 291.195 125.211 266.671 155.354 266.671C185.496 266.671 210.02 291.193 210.02 321.338V334.238C210.02 364.381 185.496 388.906 155.354 388.906C125.211 388.906 100.687 364.383 100.687 334.238ZM215.881 529.277V634.851L168.208 667.213H94.8262V612.672V503.834C94.8262 481.701 108.83 461.836 129.674 454.397L387.974 362.218C395.167 359.654 403.221 362.557 407.115 369.128C411.394 376.347 409.328 385.725 402.414 390.476L224.629 512.65C219.153 516.413 215.881 522.631 215.881 529.277ZM307.245 592.496C289.062 592.496 271.481 597.689 256.232 607.511V539.892L425.269 423.73C434.887 417.12 441.827 407.966 445.794 397.749C449.535 398.516 453.356 398.926 457.203 398.926C464.297 398.926 471.464 397.586 478.321 394.777L664.056 318.721L744.226 372.875C762.08 386.562 772.734 408.12 772.734 430.628V589.133H733.055C728.59 589.133 724.252 590.614 720.717 593.344L520.166 748.32L401.498 795.723V686.747C401.498 634.776 359.216 592.496 307.245 592.496ZM938.174 992.648H304.654V877.86L537.753 784.743C539.492 784.049 541.125 783.117 542.605 781.973L739.941 629.484H938.174V992.648ZM938.174 589.133H897.822V430.012C897.822 418.871 888.79 409.837 877.646 409.837C866.503 409.837 857.471 418.871 857.471 430.012V589.133H813.084V430.628C813.084 403.97 803.458 378.175 786.603 357.985L888.396 276.102C919.794 301.582 938.174 339.742 938.174 380.761V589.133Z" fill="black"/>
<path d="M861.506 710.859H814.43C803.287 710.859 794.254 719.894 794.254 731.035C794.254 742.176 803.287 751.211 814.43 751.211H841.33V829.225C841.33 840.366 850.363 849.4 861.506 849.4C872.649 849.4 881.682 840.366 881.682 829.225V731.035C881.682 719.894 872.649 710.859 861.506 710.859Z" fill="black"/>
<path d="M875.77 893.688C872.017 889.934 866.812 887.775 861.506 887.775C856.2 887.775 850.994 889.934 847.242 893.688C843.489 897.439 841.33 902.644 841.33 907.951C841.33 913.257 843.489 918.462 847.242 922.215C850.994 925.968 856.2 928.126 861.506 928.126C866.812 928.126 872.017 925.97 875.77 922.215C879.523 918.46 881.682 913.257 881.682 907.951C881.682 902.644 879.523 897.439 875.77 893.688Z" fill="black"/>
</svg>
