<svg width="1039" height="1039" viewBox="0 0 1039 1039" fill="none" xmlns="http://www.w3.org/2000/svg">
<g clip-path="url(#clip0)">
<path d="M634.436 627.89C728.325 589.759 789.176 497.899 787.668 396.573C787.668 257.311 667.352 144.015 519.464 144.015C371.576 144.015 251.26 257.311 251.26 396.573C249.751 497.899 310.6 589.759 404.491 627.89L406.57 629.017L420.769 652.315C395.419 666.988 386.765 699.432 401.436 724.779C403.365 728.112 405.651 731.225 408.255 734.063C388.377 755.855 389.926 789.633 411.715 809.514C421.614 818.543 434.546 823.523 447.943 823.465H590.985C620.481 823.594 644.496 799.787 644.626 770.291C644.684 756.892 639.704 743.96 630.675 734.063C650.475 712.48 649.026 678.932 627.443 659.134C624.604 656.53 621.493 654.244 618.158 652.315L632.358 629.017L634.436 627.89ZM590.983 787.704H447.941C438.066 787.704 430.06 779.698 430.06 769.824C430.06 759.95 438.066 751.944 447.941 751.944H590.983C600.857 751.944 608.863 759.95 608.863 769.824C608.863 779.698 600.857 787.704 590.983 787.704ZM590.983 716.183H447.941C438.066 716.183 430.06 708.177 430.06 698.303C430.06 688.429 438.066 680.423 447.941 680.423H590.983C600.857 680.423 608.863 688.429 608.863 698.303C608.863 708.177 600.857 716.183 590.983 716.183ZM618.205 596.008L611.055 599.892C608.288 601.401 605.966 603.611 604.324 606.3L580.943 644.662H573.102V509.022L657.265 424.86L631.982 399.575L542.581 488.976C539.228 492.329 537.344 496.875 537.342 501.618V644.66H501.581V501.618C501.579 496.875 499.695 492.329 496.342 488.976L406.941 399.575L381.658 424.858L465.821 509.02V644.66H457.98L434.6 606.298C432.957 603.609 430.635 601.399 427.868 599.89L420.718 596.005C420.143 595.699 419.556 595.422 418.954 595.176C338.115 562.654 285.664 483.697 287.018 396.573C287.018 277.035 391.287 179.775 519.462 179.775C647.636 179.775 751.905 277.035 751.905 396.573C753.259 483.697 700.805 562.654 619.969 595.176C619.368 595.424 618.777 595.701 618.205 596.008Z" fill="black"/>
<path d="M151.967 145.907L135.975 177.892L243.25 231.529L259.242 199.545L151.967 145.907Z" fill="black"/>
<path d="M889.194 152.778L775.418 190.728L786.733 224.65L900.508 186.701L889.194 152.778Z" fill="black"/>
<path d="M179.737 376.458H72.4551V412.219H179.737V376.458Z" fill="black"/>
<path d="M966.469 376.458H859.188V412.219H966.469V376.458Z" fill="black"/>
<path d="M243.25 592.89L135.975 646.527L151.967 678.512L259.242 624.874L243.25 592.89Z" fill="black"/>
<path d="M795.652 592.954L779.66 624.938L886.935 678.576L902.927 646.592L795.652 592.954Z" fill="black"/>
<path d="M537.342 18.8525H501.582V108.254H537.342V18.8525Z" fill="black"/>
<path d="M1037.99 859.225V823.465C804.716 823.465 556.829 879.855 555.231 984.387H483.692C482.094 879.855 234.206 823.465 0.933594 823.465V859.225C262.877 859.225 445.788 924.967 447.844 984.387H0.933594V1020.15H1037.99V984.387H591.078C593.135 924.967 776.045 859.225 1037.99 859.225Z" fill="black"/>
<path d="M1.87319 912.913L-0.0078125 948.624L339.777 966.521L341.658 930.811L1.87319 912.913Z" fill="black"/>
<path d="M1037.07 912.88L697.283 930.812L699.168 966.522L1038.95 948.591L1037.07 912.88Z" fill="black"/>
</g>
<defs>
<clipPath id="clip0">
<rect width="1039" height="1039" fill="white"/>
</clipPath>
</defs>
</svg>
