<svg width="1030" height="1030" viewBox="0 0 1030 1030" fill="none" xmlns="http://www.w3.org/2000/svg">
<path d="M321.221 37.6864C257.333 63.5887 200.005 101.674 150.847 150.817C101.675 199.974 63.6323 257.315 37.7154 321.188C12.6951 382.898 0 448.11 0 515C0 581.876 12.6951 647.087 37.7154 708.769C63.6323 772.657 101.689 829.997 150.847 879.141C200.005 928.312 257.319 966.369 321.221 992.271C382.932 1017.32 448.13 1029.97 515.021 1029.97C581.913 1029.97 647.096 1017.28 708.807 992.271C772.681 966.369 830.037 928.312 879.181 879.141C928.353 829.997 966.41 772.685 992.313 708.769C1017.33 647.087 1030 581.876 1030 515C1030 448.11 1017.32 382.898 992.313 321.188C966.41 257.315 928.325 199.96 879.181 150.817C830.037 101.674 772.738 63.5887 708.807 37.6864C647.096 12.6807 581.913 0 515.021 0C448.13 0 382.932 12.6807 321.221 37.6864ZM128.716 731.797C103.909 716.227 81.0525 698.294 60.8143 677.174C29.9019 590.188 24.6644 496.015 45.1446 406.623C54.7798 387.623 65.7386 369.378 78.1349 351.901C81.9633 346.507 85.5072 340.885 89.6061 335.648L205.826 404.417C205.826 405.328 205.826 406.324 205.826 407.335C205.527 469.842 211.875 531.893 224.513 593.048C224.556 593.333 224.599 593.49 224.656 593.746L134.523 735.07C132.559 734.074 130.609 732.992 128.716 731.797ZM474.275 970.71C494.328 980.942 514.95 989.581 536.142 996.612C446.123 1000.53 355.208 979.434 274.838 933.322L469.663 968.034C471.158 968.987 472.681 969.898 474.275 970.71ZM473.563 935.542L243.656 894.568C216.757 861.906 192.562 827.35 171.769 790.418C166.474 781.025 160.568 771.902 156.085 762.096L246.132 620.915C248.125 621.413 250.345 621.94 252.864 622.608C309.195 637.68 366.522 648.397 424.248 656.794C427.621 657.263 430.439 657.676 432.845 657.932L540.782 844.557C522.052 870.886 503.109 897.073 483.753 922.975C480.537 927.288 477.121 931.429 473.563 935.542ZM856.068 856.042C837.765 874.359 818.338 890.868 798.001 905.584C794.628 878.628 788.807 852.214 780.595 826.411L895.762 611.564C927.485 597.119 958.085 580.738 986.492 560.429C990.207 557.796 993.295 554.85 995.686 551.633C987.346 662.657 940.807 771.319 856.068 856.042ZM850.959 577.407C855.243 585.577 859.47 593.831 863.711 602.2L752.472 809.703C751.831 809.845 751.219 809.987 750.579 810.073C690.448 821.302 629.833 827.279 568.705 827.564L457.694 635.616C474.972 603.537 492.093 571.33 509.072 539.109C520.6 517.249 531.929 495.246 543.244 473.258L772.995 449.661C801.132 490.934 827.789 533.089 850.959 577.407ZM804.348 331.279C793.446 360.07 781.776 388.563 770.177 417.112L546.361 440.097C543.685 436.567 540.91 433.095 537.992 429.779C511.563 399.849 484.963 370.104 458.406 340.273C458.648 339.975 458.889 339.747 459.131 339.477C448.415 328.774 437.669 318.072 426.952 307.341L489.261 119.748C493.559 118.61 497.886 117.656 502.255 117.187C536.128 113.742 570.043 109.843 604.001 107.879C624.794 106.712 645.702 106.043 666.851 107.537L821.014 281.296C815.705 298.061 810.525 314.869 804.348 331.279ZM856.068 173.93C898.594 216.483 931.527 265.043 954.811 316.919C926.005 297.094 895.207 280.784 862.828 267.491C857.79 265.413 852.624 263.577 847.372 261.77L695.628 90.7434C696.681 83.357 697.236 75.9563 697.464 68.4987C755.19 91.9958 809.301 127.177 856.068 173.93ZM360.559 59.5183C361.157 59.9595 361.441 60.3296 361.783 60.4292C396.467 72.4125 428.02 90.0602 457.765 110.996L399.555 286.291C399.256 286.377 398.972 286.462 398.687 286.59C386.775 291.515 374.635 295.926 362.907 301.263C314.589 323.224 267.48 347.546 223.104 376.707L108.236 308.75C108.407 305.163 109.019 301.52 110.243 298.275C117.957 277.724 125.542 257.059 134.267 236.921C140.984 221.408 148.641 206.421 156.996 191.777C162.461 185.742 168.125 179.765 173.96 173.93C228.513 119.392 292.984 80.6671 361.626 57.7678C361.271 58.3228 360.901 58.9064 360.559 59.5183Z" fill="black"/>
</svg>
