<svg width="512" height="512" viewBox="0 0 512 512" fill="none" xmlns="http://www.w3.org/2000/svg">
<g clip-path="url(#clip0)">
<path d="M469.333 106.667H362.667V85.333C362.667 61.802 343.532 42.666 320 42.666H192C168.469 42.666 149.333 61.801 149.333 85.333V106.666H42.667C19.135 106.667 0 125.802 0 149.333V426.666C0 450.197 19.135 469.333 42.667 469.333H469.334C492.865 469.333 512.001 450.198 512.001 426.666V149.333C512 125.802 492.865 106.667 469.333 106.667ZM170.667 85.333C170.667 73.573 180.24 64 192 64H320C331.76 64 341.333 73.573 341.333 85.333V106.666H170.667V85.333ZM490.667 426.667C490.667 438.427 481.094 448 469.334 448H42.667C30.907 448 21.334 438.427 21.334 426.667V271.4C27.635 275.074 34.861 277.334 42.667 277.334H213.334V309.334C213.334 315.23 218.105 320.001 224.001 320.001H288.001C293.897 320.001 298.668 315.23 298.668 309.334V277.334H469.335C477.141 277.334 484.368 275.075 490.668 271.4V426.667H490.667ZM234.667 298.667V256H277.334V298.667H234.667ZM490.667 234.667C490.667 246.427 481.094 256 469.334 256H298.667V245.333C298.667 239.437 293.896 234.666 288 234.666H224C218.104 234.666 213.333 239.437 213.333 245.333V256H42.667C30.907 256 21.334 246.427 21.334 234.667V149.334C21.334 137.574 30.907 128.001 42.667 128.001H469.334C481.094 128.001 490.667 137.574 490.667 149.334V234.667Z" fill="black"/>
</g>
<defs>
<clipPath id="clip0">
<rect width="512" height="512" fill="white"/>
</clipPath>
</defs>
</svg>
