<svg width="512" height="512" viewBox="0 0 512 512" fill="none" xmlns="http://www.w3.org/2000/svg">
<path d="M362.672 42.6602H309.344C309.344 72.0742 285.406 95.9962 256 95.9962C226.594 95.9962 202.672 72.0742 202.672 42.6602H149.336L0 127.996L42.672 245.332L106.672 223.996V469.34H405.344V223.996L469.344 245.332L512 127.996L362.672 42.6602ZM456.375 218.527L412.078 203.761L384 194.395V223.997V447.997H128V223.997V194.395L99.922 203.762L55.625 218.528L26.195 137.598L155 63.9962H184.43C193.61 94.8402 222.18 117.332 256 117.332C289.828 117.332 318.391 94.8402 327.562 63.9962H357L485.812 137.598L456.375 218.527Z" fill="black"/>
</svg>
