<svg width="471" height="411" viewBox="0 0 471 411" fill="none" xmlns="http://www.w3.org/2000/svg">
<path d="M327.367 0H90.312C74.395 0 61.4336 11.3181 61.4336 25.2048V385.791C61.4336 399.698 74.395 410.999 90.312 410.999H380.683C396.614 410.999 409.564 399.698 409.564 385.791V77.9351L327.367 0ZM334.183 37.716L370.211 71.8835H334.183V37.716ZM385.309 385.792C385.309 388.012 383.226 389.835 380.67 389.835H90.312C87.7597 389.835 85.6889 388.012 85.6889 385.792V25.2048C85.6889 22.9795 87.7597 21.176 90.312 21.176H309.916V82.4706C309.916 88.3065 315.364 93.0376 322.056 93.0376H385.309V385.792ZM128.476 112.57H334.443C339.46 112.57 343.53 116.121 343.53 120.499C343.53 124.877 339.46 128.429 334.443 128.429H128.476C123.459 128.429 119.389 124.877 119.389 120.499C119.389 116.122 123.459 112.57 128.476 112.57ZM343.53 173.785C343.53 178.162 339.46 181.714 334.443 181.714H128.476C123.459 181.714 119.389 178.163 119.389 173.785C119.389 169.407 123.459 165.856 128.476 165.856H334.443C339.46 165.856 343.53 169.408 343.53 173.785ZM343.53 225.326C343.53 229.704 339.46 233.255 334.443 233.255H128.476C123.459 233.255 119.389 229.704 119.389 225.326C119.389 220.947 123.459 217.396 128.476 217.396H334.443C339.46 217.396 343.53 220.947 343.53 225.326ZM343.53 277.744C343.53 282.122 339.46 285.674 334.443 285.674H128.476C123.459 285.674 119.389 282.122 119.389 277.744C119.389 273.366 123.459 269.815 128.476 269.815H334.443C339.46 269.815 343.53 273.366 343.53 277.744Z" fill="black"/>
</svg>
