<svg width="153" height="153" viewBox="0 0 153 153" fill="none" xmlns="http://www.w3.org/2000/svg">
<path d="M76.694 0.292969C34.7582 0.292969 0.761719 34.2905 0.761719 76.2262C0.761719 118.161 34.7582 152.161 76.694 152.161C118.63 152.161 152.629 118.161 152.629 76.2262C152.629 34.2905 118.63 0.292969 76.694 0.292969ZM76.6955 26.9643L121.63 54.9843H31.7608L76.6955 26.9643ZM122.19 99.7286H122.186C122.186 104.223 118.543 107.865 114.049 107.865H39.3417C34.8473 107.865 31.2055 104.222 31.2055 99.7286V56.7672C31.2055 56.2918 31.2541 55.8297 31.3331 55.3756L74.2656 82.1466C74.3183 82.1795 74.3744 82.2018 74.4286 82.2322C74.4853 82.2636 74.543 82.2939 74.6007 82.3228C74.904 82.4792 75.2163 82.6053 75.5357 82.6878C75.5686 82.6969 75.6015 82.701 75.6345 82.7086C75.9848 82.7911 76.3396 82.8427 76.694 82.8427H76.6965C76.6991 82.8427 76.7016 82.8427 76.7016 82.8427C77.056 82.8427 77.4108 82.7926 77.7611 82.7086C77.794 82.7005 77.8269 82.6969 77.8598 82.6878C78.1788 82.6053 78.4901 82.4792 78.7949 82.3228C78.8526 82.2939 78.9103 82.2636 78.967 82.2322C79.0206 82.2018 79.0773 82.1795 79.13 82.1466L122.063 55.3756C122.141 55.8297 122.19 56.2908 122.19 56.7672V99.7286Z" fill="#272727"/>
</svg>
