<svg width="159" height="159" viewBox="0 0 159 159" fill="none" xmlns="http://www.w3.org/2000/svg">
<path d="M79.5 0C35.6639 0 0 35.6639 0 79.5C0 123.333 35.6639 159 79.5 159C123.333 159 159 123.333 159 79.5C159 35.6639 123.339 0 79.5 0ZM99.2709 82.2988H86.3369C86.3369 102.963 86.3369 128.399 86.3369 128.399H67.1712C67.1712 128.399 67.1712 103.21 67.1712 82.2988H58.0607V66.0056H67.1712V55.4668C67.1712 47.919 70.7578 36.125 86.513 36.125L100.715 36.1795V51.9955C100.715 51.9955 92.085 51.9955 90.407 51.9955C88.729 51.9955 86.3433 52.8345 86.3433 56.4339V66.0088H100.946L99.2709 82.2988Z" fill="#272727"/>
</svg>
