<svg width="223" height="223" viewBox="0 0 223 223" fill="none" xmlns="http://www.w3.org/2000/svg">
<path d="M68.6445 99.4485V107.118H81.0334V97.8894H84.1096V125.659H81.0334V110.236H71.6785V124.142L70.1615 125.659H64.0513L62.4922 124.1V99.4485L64.0513 97.8894H67.1275L68.6445 99.4485Z" fill="#27246B"/>
<path d="M89.3764 125.659L87.8594 124.142V108.677L90.9777 105.559V99.4064L92.4947 97.8894H104.841L106.401 99.4485V105.559L109.519 108.677V125.659H106.443V110.236H97.0878V124.142L95.5708 125.659H89.3764ZM97.0457 101.008V107.118H103.324V101.008H97.0457Z" fill="#27246B"/>
<path d="M120.602 101.008V105.685L123.678 108.761V122.541H132.991V119.422H136.067V124.058L134.508 125.617H116.051L114.492 124.058V99.4485L116.051 97.8894H134.508L136.067 99.4485V104.042H132.991V100.966H120.602V101.008Z" fill="#27246B"/>
<path d="M143.358 122.541H152.671V110.194H141.883L140.324 108.635V99.4485L141.883 97.8894H160.34L161.899 99.4485V104.042H158.865V100.966H146.519V107.076H160.34L161.899 108.635V124.016L160.34 125.575H141.883L140.324 124.016V119.38H143.4V122.541H143.358Z" fill="#27246B"/>
<path d="M196.37 99.3641C196.37 99.3641 188.026 35.1442 117.991 26.4214L117.528 38.7681C117.528 38.7681 85.839 34.4278 58.0272 61.9868C48.6723 71.2574 40.3709 86.1746 38.1797 110.152L51.2428 110.615C51.2428 110.615 50.7793 165.775 107.878 171.928" stroke="#27246B" stroke-width="7" stroke-miterlimit="10"/>
<path d="M99.4927 26.4214C99.4927 26.4214 54.0668 31.0988 33.4608 75.0499C14.2454 116.051 33.6293 154.608 43.237 165.059C54.0247 176.774 76.2741 197.337 110.238 197.801L109.143 184.822C109.143 184.822 139.23 186.044 160.594 165.522" stroke="#27246B" stroke-width="7" stroke-miterlimit="10"/>
<path d="M40.3281 126.839C40.3281 126.839 42.7722 163.837 91.6114 182.462" stroke="#27246B" stroke-width="7" stroke-miterlimit="10"/>
<path d="M127.176 196.242C127.176 196.242 191.522 186.086 197.337 116.178" stroke="#27246B" stroke-width="7" stroke-miterlimit="10"/>
<path d="M140.492 44.9204C140.492 44.9204 180.398 59.7955 184.064 106.233C184.064 106.233 185.497 133.455 173.529 149.046" stroke="#27246B" stroke-width="7" stroke-miterlimit="10"/>
<path d="M56.3008 87.7339C56.3008 87.7339 70.7966 47.8282 115.801 51.0729C164.851 54.6547 172.057 101.556 172.057 110.573C172.057 119.591 170.498 154.145 131.055 168.262" stroke="#27246B" stroke-width="7" stroke-miterlimit="10"/>
<path d="M99.1548 31.1832C101.715 31.1832 103.79 29.1079 103.79 26.5479C103.79 23.9879 101.715 21.9126 99.1548 21.9126C96.5948 21.9126 94.5195 23.9879 94.5195 26.5479C94.5195 29.1079 96.5948 31.1832 99.1548 31.1832Z" fill="#981B1E"/>
<path d="M159.456 170.411C162.016 170.411 164.091 168.335 164.091 165.775C164.091 163.215 162.016 161.14 159.456 161.14C156.896 161.14 154.82 163.215 154.82 165.775C154.82 168.335 156.896 170.411 159.456 170.411Z" fill="#981B1E"/>
<path d="M173.866 153.429C176.426 153.429 178.501 151.353 178.501 148.793C178.501 146.233 176.426 144.158 173.866 144.158C171.306 144.158 169.23 146.233 169.23 148.793C169.23 151.353 171.306 153.429 173.866 153.429Z" fill="#981B1E"/>
<path d="M140.495 49.6402C143.055 49.6402 145.13 47.5649 145.13 45.0049C145.13 42.4449 143.055 40.3696 140.495 40.3696C137.935 40.3696 135.859 42.4449 135.859 45.0049C135.859 47.5649 137.935 49.6402 140.495 49.6402Z" fill="#981B1E"/>
<path d="M56.2134 93.1275C58.7734 93.1275 60.8487 91.0522 60.8487 88.4922C60.8487 85.9322 58.7734 83.8569 56.2134 83.8569C53.6534 83.8569 51.5781 85.9322 51.5781 88.4922C51.5781 91.0522 53.6534 93.1275 56.2134 93.1275Z" fill="#981B1E"/>
<path d="M107.835 176.563C110.395 176.563 112.47 174.488 112.47 171.928C112.47 169.368 110.395 167.292 107.835 167.292C105.275 167.292 103.199 169.368 103.199 171.928C103.199 174.488 105.275 176.563 107.835 176.563Z" fill="#981B1E"/>
<path d="M91.6119 187.098C94.1719 187.098 96.2472 185.022 96.2472 182.462C96.2472 179.902 94.1719 177.827 91.6119 177.827C89.0519 177.827 86.9766 179.902 86.9766 182.462C86.9766 185.022 89.0519 187.098 91.6119 187.098Z" fill="#981B1E"/>
<path d="M40.0767 130.505C42.6367 130.505 44.712 128.43 44.712 125.87C44.712 123.31 42.6367 121.234 40.0767 121.234C37.5167 121.234 35.4414 123.31 35.4414 125.87C35.4414 128.43 37.5167 130.505 40.0767 130.505Z" fill="#981B1E"/>
<path d="M127.178 200.877C129.738 200.877 131.814 198.802 131.814 196.242C131.814 193.682 129.738 191.607 127.178 191.607C124.618 191.607 122.543 193.682 122.543 196.242C122.543 198.802 124.618 200.877 127.178 200.877Z" fill="#981B1E"/>
<path d="M197.127 120.771C199.688 120.771 201.763 118.696 201.763 116.136C201.763 113.576 199.688 111.5 197.127 111.5C194.567 111.5 192.492 113.576 192.492 116.136C192.492 118.696 194.567 120.771 197.127 120.771Z" fill="#981B1E"/>
<path d="M196.456 104.379C199.016 104.379 201.091 102.303 201.091 99.7434C201.091 97.1834 199.016 95.1082 196.456 95.1082C193.896 95.1082 191.82 97.1834 191.82 99.7434C191.82 102.303 193.896 104.379 196.456 104.379Z" fill="#981B1E"/>
<path d="M130.338 173.023C132.898 173.023 134.974 170.948 134.974 168.388C134.974 165.828 132.898 163.753 130.338 163.753C127.778 163.753 125.703 165.828 125.703 168.388C125.703 170.948 127.778 173.023 130.338 173.023Z" fill="#981B1E"/>
<path d="M105.137 2.31787V14.2854" stroke="#068B45" stroke-width="5" stroke-miterlimit="10"/>
<path d="M109.859 2.31787V14.2854" stroke="#068B45" stroke-width="5" stroke-miterlimit="10"/>
<path d="M114.578 2.31787V14.2854" stroke="#068B45" stroke-width="5" stroke-miterlimit="10"/>
<path d="M105.137 209.642V221.61" stroke="#068B45" stroke-width="5" stroke-miterlimit="10"/>
<path d="M109.859 209.642V221.61" stroke="#068B45" stroke-width="5" stroke-miterlimit="10"/>
<path d="M114.578 209.642V221.61" stroke="#068B45" stroke-width="5" stroke-miterlimit="10"/>
<path d="M154.355 10.3662L149.594 21.3645" stroke="#068B45" stroke-width="5" stroke-miterlimit="10"/>
<path d="M158.699 12.2627L153.938 23.261" stroke="#068B45" stroke-width="5" stroke-miterlimit="10"/>
<path d="M163.039 14.1167L158.277 25.115" stroke="#068B45" stroke-width="5" stroke-miterlimit="10"/>
<path d="M192.79 37.4619L183.898 45.5105" stroke="#068B45" stroke-width="5" stroke-miterlimit="10"/>
<path d="M195.947 40.9595L187.098 49.008" stroke="#068B45" stroke-width="5" stroke-miterlimit="10"/>
<path d="M199.107 44.415L190.258 52.5057" stroke="#068B45" stroke-width="5" stroke-miterlimit="10"/>
<path d="M217.945 83.6465L206.23 86.0906" stroke="#068B45" stroke-width="5" stroke-miterlimit="10"/>
<path d="M218.914 88.2817L207.199 90.6837" stroke="#068B45" stroke-width="5" stroke-miterlimit="10"/>
<path d="M219.882 92.875L208.125 95.3191" stroke="#068B45" stroke-width="5" stroke-miterlimit="10"/>
<path d="M219.715 130.884L207.832 129.156" stroke="#068B45" stroke-width="5" stroke-miterlimit="10"/>
<path d="M219.039 135.52L207.156 133.834" stroke="#068B45" stroke-width="5" stroke-miterlimit="10"/>
<path d="M218.368 140.197L206.484 138.511" stroke="#068B45" stroke-width="5" stroke-miterlimit="10"/>
<path d="M198.686 178.67L189.668 170.79" stroke="#068B45" stroke-width="5" stroke-miterlimit="10"/>
<path d="M195.569 182.21L186.551 174.33" stroke="#068B45" stroke-width="5" stroke-miterlimit="10"/>
<path d="M192.494 185.749L183.477 177.869" stroke="#068B45" stroke-width="5" stroke-miterlimit="10"/>
<path d="M162.7 209.136L157.559 198.349" stroke="#068B45" stroke-width="5" stroke-miterlimit="10"/>
<path d="M158.446 211.159L153.305 200.372" stroke="#068B45" stroke-width="5" stroke-miterlimit="10"/>
<path d="M154.188 213.224L149.047 202.394" stroke="#068B45" stroke-width="5" stroke-miterlimit="10"/>
<path d="M123.68 14.454L139.987 18.2887L134.004 4.67773L123.68 14.454Z" fill="#EAA121"/>
<path d="M123.68 14.454L139.987 18.2887L134.004 4.67773L123.68 14.454Z" fill="#EAA121"/>
<path d="M196.203 62.1553L203.451 77.2832L210.278 64.0515L196.203 62.1553Z" fill="#EAA121"/>
<path d="M202.986 147.824L194.938 162.531L209.644 160.382L202.986 147.824Z" fill="#EAA121"/>
<path d="M176.606 23.1768C172.772 23.261 169.738 26.4636 169.822 30.2983C169.906 33.3744 172.435 35.8185 175.511 35.7342C177.955 35.6499 179.893 33.6272 179.851 31.1832C179.809 29.2026 179.345 26.885 176.691 26.295C174.71 25.8737 172.435 27.6856 172.266 29.9611C172.14 31.6889 174.162 34.0486 176.269 33.1637C177.196 32.7845 177.533 31.9838 177.533 30.9725C177.533 30.1718 177.618 28.2756 176.143 28.3599C175.511 28.402 174.668 28.8655 174.542 29.7083C174.542 30.2561 174.668 30.8039 174.921 31.2675" stroke="#981B1E" stroke-width="4" stroke-miterlimit="10"/>
<path d="M220.726 105.98C217.524 103.873 213.183 104.758 211.076 108.003C209.391 110.573 210.107 114.029 212.678 115.714C214.743 117.063 217.482 116.515 218.872 114.45C219.968 112.807 220.895 110.615 219.041 108.635C217.65 107.16 214.743 107.371 213.31 109.14C212.214 110.489 212.551 113.607 214.785 114.029C215.754 114.239 216.512 113.776 217.06 112.933C217.482 112.259 218.661 110.742 217.397 109.983C216.849 109.646 215.88 109.562 215.332 110.194C214.995 110.615 214.827 111.163 214.743 111.711" stroke="#981B1E" stroke-width="4" stroke-miterlimit="10"/>
<path d="M180.777 197.211C181.535 193.461 179.133 189.752 175.341 188.994C172.307 188.362 169.357 190.3 168.767 193.334C168.261 195.736 169.821 198.096 172.223 198.602C174.161 198.981 176.521 199.065 177.658 196.621C178.501 194.767 177.237 192.154 175.088 191.48C173.402 190.975 170.663 192.407 171.085 194.641C171.253 195.652 171.97 196.158 172.981 196.368C173.782 196.537 175.594 197.043 175.804 195.568C175.889 194.936 175.636 194.009 174.835 193.714C174.287 193.587 173.74 193.587 173.234 193.714" stroke="#981B1E" stroke-width="4" stroke-miterlimit="10"/>
<path d="M23.0508 47.0693L32.5321 54.3594" stroke="#068B45" stroke-width="5" stroke-miterlimit="10"/>
<path d="M25.918 43.3193L35.4414 50.6094" stroke="#068B45" stroke-width="5" stroke-miterlimit="10"/>
<path d="M28.8242 39.5688L38.3055 46.8589" stroke="#068B45" stroke-width="5" stroke-miterlimit="10"/>
<path d="M57.4375 15.4233L62.9577 26.0845" stroke="#068B45" stroke-width="5" stroke-miterlimit="10"/>
<path d="M61.6523 13.2739L67.1304 23.9351" stroke="#068B45" stroke-width="5" stroke-miterlimit="10"/>
<path d="M65.8242 11.125L71.3444 21.744" stroke="#068B45" stroke-width="5" stroke-miterlimit="10"/>
<path d="M61.3984 208.547L67.1294 198.012" stroke="#068B45" stroke-width="5" stroke-miterlimit="10"/>
<path d="M57.2695 206.271L63.0004 195.778" stroke="#068B45" stroke-width="5" stroke-miterlimit="10"/>
<path d="M53.1406 204.038L58.8294 193.503" stroke="#068B45" stroke-width="5" stroke-miterlimit="10"/>
<path d="M25.0312 179.681L34.2597 172.054" stroke="#068B45" stroke-width="5" stroke-miterlimit="10"/>
<path d="M22.0391 176.057L31.2675 168.43" stroke="#068B45" stroke-width="5" stroke-miterlimit="10"/>
<path d="M19.0469 172.433L28.2753 164.806" stroke="#068B45" stroke-width="5" stroke-miterlimit="10"/>
<path d="M5.05859 139.86L16.7733 137.205" stroke="#068B45" stroke-width="5" stroke-miterlimit="10"/>
<path d="M4.04688 135.267L15.7194 132.612" stroke="#068B45" stroke-width="5" stroke-miterlimit="10"/>
<path d="M2.99219 130.631L14.6647 128.019" stroke="#068B45" stroke-width="5" stroke-miterlimit="10"/>
<path d="M4.42578 90.3887L16.309 91.9478" stroke="#068B45" stroke-width="5" stroke-miterlimit="10"/>
<path d="M5.05859 85.7109L16.8997 87.2701" stroke="#068B45" stroke-width="5" stroke-miterlimit="10"/>
<path d="M5.64844 81.0337L17.5317 82.5928" stroke="#068B45" stroke-width="5" stroke-miterlimit="10"/>
<path d="M51.4943 189.205L39.1897 177.827L37.7148 192.66L51.4943 189.205Z" fill="#EAA121"/>
<path d="M13.6567 118.537V101.766L1.77344 110.742L13.6567 118.537Z" fill="#EAA121"/>
<path d="M42.1392 41.9706L55.2444 31.5622L40.875 27.854L42.1392 41.9706Z" fill="#EAA121"/>
<path d="M82.4267 218.576C86.0928 217.438 88.1155 213.519 86.9777 209.853C86.0507 206.903 82.9324 205.302 79.9827 206.229C77.6229 206.987 76.3166 209.474 77.0751 211.833C77.665 213.73 78.7606 215.837 81.4575 215.626C83.4802 215.457 85.1658 213.097 84.6601 210.864C84.2809 209.179 81.7104 207.451 79.9405 208.884C79.1399 209.516 79.0556 210.401 79.3506 211.37C79.6034 212.128 80.0248 213.982 81.4154 213.477C82.0053 213.266 82.6796 212.592 82.5532 211.749C82.4267 211.201 82.1318 210.738 81.7525 210.358" stroke="#981B1E" stroke-width="4" stroke-miterlimit="10"/>
<path d="M12.4336 158.443C15.8469 160.213 20.0608 158.907 21.8306 155.536C23.2633 152.797 22.2099 149.468 19.513 148.035C17.3217 146.897 14.6248 147.74 13.4871 149.889C12.56 151.617 11.8436 153.934 13.8663 155.662C15.3833 156.968 18.2909 156.505 19.513 154.609C20.44 153.134 19.8501 150.1 17.5746 149.847C16.5632 149.763 15.889 150.268 15.3833 151.153C15.0041 151.869 13.9927 153.471 15.3412 154.103C15.9311 154.356 16.9003 154.398 17.3639 153.681C17.6588 153.218 17.7853 152.67 17.7853 152.122" stroke="#981B1E" stroke-width="4" stroke-miterlimit="10"/>
<path d="M122.922 209.895L139.145 205.681L133.457 219.461L122.922 209.895Z" fill="#EAA121"/>
<path d="M12.0547 65.2738C12.9396 69.0242 16.69 71.3419 20.4404 70.4148C23.4322 69.6984 25.2864 66.7065 24.57 63.7147C23.98 61.3127 21.5781 59.8379 19.1762 60.4278C17.2799 60.8913 15.0887 61.8605 15.0887 64.5153C15.0887 66.538 17.3642 68.3921 19.5976 68.055C21.3253 67.8022 23.1794 65.3159 21.9152 63.4618C21.3253 62.619 20.4825 62.4505 19.4712 62.7033C18.6705 62.8719 16.8164 63.209 17.2378 64.5996C17.4064 65.2317 18.0384 65.948 18.8812 65.8638C19.429 65.7795 19.9347 65.5266 20.3561 65.1895" stroke="#981B1E" stroke-width="4" stroke-miterlimit="10"/>
<path d="M80.952 6.32129C78.7186 9.43958 79.435 13.7799 82.5533 16.0133C82.5533 16.0133 82.5533 16.0133 82.5954 16.0133C85.0816 17.8253 88.5792 17.2353 90.3911 14.707C91.8239 12.6843 91.3603 9.90311 89.3798 8.47038C87.7785 7.33263 85.6294 6.32129 83.6067 8.09113C82.0897 9.43958 82.174 12.3472 83.9017 13.822C85.208 14.9598 88.3263 14.7491 88.8741 12.5157C89.127 11.5465 88.6634 10.788 87.8628 10.1981C87.1886 9.73456 85.7558 8.51252 84.9552 9.77669C84.6181 10.3245 84.4917 11.2516 85.0816 11.8415C85.503 12.1786 86.0087 12.3893 86.5565 12.4736" stroke="#981B1E" stroke-width="4" stroke-miterlimit="10"/>
<path d="M111.713 221.104C172.362 221.104 221.527 171.938 221.527 111.29C221.527 50.6407 172.362 1.4751 111.713 1.4751C51.064 1.4751 1.89844 50.6407 1.89844 111.29C1.89844 171.938 51.064 221.104 111.713 221.104Z" stroke="#27246B" stroke-width="7" stroke-miterlimit="10"/>
<path d="M111.29 209.684C165.399 209.684 209.263 165.82 209.263 111.711C209.263 57.602 165.399 13.7378 111.29 13.7378C57.1806 13.7378 13.3164 57.602 13.3164 111.711C13.3164 165.82 57.1806 209.684 111.29 209.684Z" stroke="#27246B" stroke-width="7" stroke-miterlimit="10"/>
<path d="M111.291 221.525C171.94 221.525 221.105 172.36 221.105 111.711C221.105 51.0621 171.94 1.89648 111.291 1.89648C50.6422 1.89648 1.47656 51.0621 1.47656 111.711C1.47656 172.36 50.6422 221.525 111.291 221.525Z" stroke="#27246B" stroke-width="7" stroke-miterlimit="10"/>
</svg>
