<svg width="159" height="159" viewBox="0 0 159 159" fill="none" xmlns="http://www.w3.org/2000/svg">
<g clip-path="url(#clip0)">
<path d="M79.7977 94.9118C88.5225 94.9118 95.6354 87.8116 95.6354 79.0804C95.6354 75.6338 94.5078 72.4516 92.6412 69.8523C89.7648 65.8642 85.0886 63.249 79.8072 63.249C74.5227 63.249 69.8497 65.861 66.9669 69.8491C65.0939 72.4484 63.9759 75.6306 63.9727 79.0772C63.9631 87.8084 71.0697 94.9118 79.7977 94.9118Z" fill="#272727"/>
<path d="M114.366 59.713V46.4427V44.4678L112.381 44.4741L99.1172 44.5156L99.1682 59.764L114.366 59.713Z" fill="#272727"/>
<path d="M79.7992 0C36.1944 0 0.71875 35.4757 0.71875 79.0805C0.71875 122.682 36.1944 158.161 79.7992 158.161C123.401 158.161 158.88 122.682 158.88 79.0805C158.88 35.4757 123.407 0 79.7992 0ZM124.774 69.8524V106.675C124.774 116.267 116.976 124.061 107.391 124.061H52.2074C42.6194 124.061 34.8247 116.267 34.8247 106.675V69.8524V51.4918C34.8247 41.9038 42.6194 34.1091 52.2074 34.1091H107.388C116.976 34.1091 124.774 41.9038 124.774 51.4918V69.8524Z" fill="#272727"/>
<path d="M104.401 79.0806C104.401 92.6408 93.3672 103.681 79.8006 103.681C66.2341 103.681 55.203 92.6408 55.203 79.0806C55.203 75.8188 55.8529 72.7003 57.0124 69.8525H43.5859V106.676C43.5859 111.435 47.4498 115.289 52.2056 115.289H107.386C112.135 115.289 116.006 111.435 116.006 106.676V69.8525H102.573C103.742 72.7003 104.401 75.8188 104.401 79.0806Z" fill="#272727"/>
</g>
<defs>
<clipPath id="clip0">
<rect width="158.161" height="158.161" fill="white" transform="translate(0.71875)"/>
</clipPath>
</defs>
</svg>
