<svg width="153" height="153" viewBox="0 0 153 153" fill="none" xmlns="http://www.w3.org/2000/svg">
<path d="M76.3219 0.292969C34.5677 0.292969 0.597656 34.3572 0.597656 76.227C0.597656 118.094 34.5677 152.161 76.3219 152.161C118.073 152.161 152.046 118.094 152.046 76.227C152.046 34.3572 118.079 0.292969 76.3219 0.292969ZM110.103 58.8478C110.136 59.6002 110.155 60.3587 110.155 61.1173C110.155 84.2132 92.6283 110.836 60.5616 110.836C50.7186 110.836 41.5558 107.951 33.8448 102.99C35.2083 103.152 36.5961 103.235 38.0023 103.235C46.1707 103.235 53.6833 100.439 59.6495 95.7534C52.024 95.6127 45.5851 90.5598 43.3676 83.6137C44.429 83.8155 45.5241 83.9287 46.6435 83.9287C48.2326 83.9287 49.776 83.7207 51.2371 83.32C43.2639 81.7173 37.258 74.6549 37.258 66.1824C37.258 66.109 37.258 66.0325 37.2611 65.9622C39.6097 67.2682 42.297 68.0574 45.1519 68.1461C40.479 65.0171 37.4014 59.6644 37.4014 53.6022C37.4014 50.3967 38.2585 47.3931 39.7592 44.8116C48.3516 55.3884 61.199 62.3438 75.6814 63.0779C75.3825 61.7963 75.233 60.4658 75.233 59.0925C75.233 49.4424 83.0354 41.6153 92.6588 41.6153C97.6733 41.6153 102.197 43.738 105.381 47.1331C109.356 46.3501 113.077 44.9003 116.453 42.8908C115.142 46.9741 112.388 50.3967 108.779 52.5622C112.308 52.1401 115.676 51.2042 118.79 49.8125C116.466 53.3116 113.51 56.3917 110.103 58.8478Z" fill="#272727"/>
</svg>
